If you care to share, you should love to seed,

please Seed what you leech and make the speed Faster with your speed,

and remember to visit http:// www . Speed . cd


 
http://img196.imageshack.us/img196/9735/braveheartt.png 


Braveheart.1995.DVDRip.Xvid.AC3.DiVERSiTY


[info]
[nfo][font=Courier New]   
Complete name                    : Braveheart.1995.DVDRip.Xvid.AC3.DiVERSiTY
Format                           : AVI
Format/Info                      : Audio Video Interleave
File size                        : 1.60GB
Duration                         : 2h 57mn
Overall bit rate                 : 1288 Kbps
Writing application              : VirtualDubMod 1.5.4.1 (build 2178/release)
Writing library                  : VirtualDubMod build 2178/release
Source                           : Retail dvd 
Encoder                          : Hibees

[url]http://www.imdb.com/title/tt0112573/[/url]



[color=green]Video[/color]

Format                           : MPEG-4 Visual
Format profile                   : Streaming Video@L1
Format settings, BVOP            : Yes
Format settings, QPel            : No
Format settings, GMC             : No warppoints
Format settings, Matrix          : Default
Codec ID                         : XVID
Codec ID/Hint                    : XviD
Duration                         : 2h 57mn
Bit rate                         : 894 Kbps
Width                            : 720 pixels
Height                           : 304 pixels
Display aspect ratio             : 2.35
Frame rate                       : 25.000 fps
Resolution                       : 24 bits
Colorimetry                      : 4:2:0
Scan type                        : Progressive
Bits/(Pixel*Frame)               : 0.163
Stream size                      : 1.11 GiB (69%)
Writing library                  : XviD 1.2.1 (UTC 2008-12-04)



[color=green]Audio[/color]

Format                           : AC-3
Format/Info                      : Audio Coding 3
Codec ID                         : 2000
Duration                         : 2h 57mn
Bit rate mode                    : Constant
Bit rate                         : 384 Kbps
Channel(s)                       : 6 channels
Channel positions                : Front: L C R, Surround: L R, LFE
Sampling rate                    : 48.0 KHz
Video delay                      : 24ms
Stream size                      : 488 MiB (30%)
Alignment                        : Split accross interleaves
Interleave, duration             : 40 ms (1.00 video frame)
Interleave, preload duration     : 500 ms
 



[cast]

Mel Gibson                       : William Wallace
Catherine McCormack              : Murron
Brendan Gleeson                  : Hamish
James Robinson                   : Young William Wallace
Sean Lawlor                      : Malcolm Wallace
Sandy Nelson                     : John Wallace
Andrew Weir                      : Young Hamish
Brian Cox                        : Argyle Wallace
Patrick McGoohan                 : Longshanks - King Edward I
Peter Hanly                      : Prince Edward
Sophie Marceau                   : Princess Isabelle
Angus Macfadyen                  : Robert the Bruce 



[plot]

William Wallace, a commoner, unites the 13th Century Scots in their battle 
to overthrow English rule. 



[note]
[color=red]
Enjoy

Dont forget to thank the uploader [/color][/nfo]


Greets to:

*THC*,PrisM,DiGiTaL iNK,ViSiON,LEGi0N,FLAWL3SS,Rx,Hibees,xXTHORNXx,Noir,IMAGiNE
PDU,ELEKTRI4KA,KART3LDVD,CTFX,202122, StevieL,skrufern

All the people that make p2p what it is...THANKS  



[screens]

[IMG]http://img46.imageshack.us/img46/8937/braveheartavisnapshot00.jpg[/IMG]
[IMG]http://img146.imageshack.us/img146/8937/braveheartavisnapshot00.jpg[/IMG]
[IMG]http://img24.imageshack.us/img24/8937/braveheartavisnapshot00.jpg[/IMG]
[IMG]http://img715.imageshack.us/img715/8937/braveheartavisnapshot00.jpg[/IMG]
[IMG]http://img63.imageshack.us/img63/266/braveheartavisnapshot02.jpg[/IMG]
[IMG]http://img109.imageshack.us/img109/266/braveheartavisnapshot02.jpg[/IMG]
[IMG]http://img530.imageshack.us/img530/266/braveheartavisnapshot02.jpg[/IMG]
